<svg width="215" height="117" viewBox="0 0 215 117" fill="none" xmlns="http://www.w3.org/2000/svg">
<rect width="215" height="117" fill="#E5E5E5"/>
<rect width="215" height="117" fill="#696060"/>
<path d="M79.1875 44H74.6641V28.2266H57.4609V44H52.9609V9.875H57.4609V24.5469H74.6641V9.875H79.1875V44ZM85.3516 31.0859C85.3516 28.6016 85.8359 26.3672 86.8047 24.3828C87.7891 22.3984 89.1484 20.8672 90.8828 19.7891C92.6328 18.7109 94.625 18.1719 96.8594 18.1719C100.312 18.1719 103.102 19.3672 105.227 21.7578C107.367 24.1484 108.438 27.3281 108.438 31.2969V31.6016C108.438 34.0703 107.961 36.2891 107.008 38.2578C106.07 40.2109 104.719 41.7344 102.953 42.8281C101.203 43.9219 99.1875 44.4688 96.9062 44.4688C93.4688 44.4688 90.6797 43.2734 88.5391 40.8828C86.4141 38.4922 85.3516 35.3281 85.3516 31.3906V31.0859ZM89.7109 31.6016C89.7109 34.4141 90.3594 36.6719 91.6562 38.375C92.9688 40.0781 94.7188 40.9297 96.9062 40.9297C99.1094 40.9297 100.859 40.0703 102.156 38.3516C103.453 36.6172 104.102 34.1953 104.102 31.0859C104.102 28.3047 103.438 26.0547 102.109 24.3359C100.797 22.6016 99.0469 21.7344 96.8594 21.7344C94.7188 21.7344 92.9922 22.5859 91.6797 24.2891C90.3672 25.9922 89.7109 28.4297 89.7109 31.6016ZM119.758 12.5V18.6406H124.492V21.9922H119.758V37.7188C119.758 38.7344 119.969 39.5 120.391 40.0156C120.812 40.5156 121.531 40.7656 122.547 40.7656C123.047 40.7656 123.734 40.6719 124.609 40.4844V44C123.469 44.3125 122.359 44.4688 121.281 44.4688C119.344 44.4688 117.883 43.8828 116.898 42.7109C115.914 41.5391 115.422 39.875 115.422 37.7188V21.9922H110.805V18.6406H115.422V12.5H119.758ZM140.102 44.4688C136.664 44.4688 133.867 43.3438 131.711 41.0938C129.555 38.8281 128.477 35.8047 128.477 32.0234V31.2266C128.477 28.7109 128.953 26.4688 129.906 24.5C130.875 22.5156 132.219 20.9688 133.938 19.8594C135.672 18.7344 137.547 18.1719 139.562 18.1719C142.859 18.1719 145.422 19.2578 147.25 21.4297C149.078 23.6016 149.992 26.7109 149.992 30.7578V32.5625H132.812C132.875 35.0625 133.602 37.0859 134.992 38.6328C136.398 40.1641 138.18 40.9297 140.336 40.9297C141.867 40.9297 143.164 40.6172 144.227 39.9922C145.289 39.3672 146.219 38.5391 147.016 37.5078L149.664 39.5703C147.539 42.8359 144.352 44.4688 140.102 44.4688ZM139.562 21.7344C137.812 21.7344 136.344 22.375 135.156 23.6562C133.969 24.9219 133.234 26.7031 132.953 29H145.656V28.6719C145.531 26.4688 144.938 24.7656 143.875 23.5625C142.812 22.3438 141.375 21.7344 139.562 21.7344ZM159.742 44H155.406V8H159.742V44Z" fill="#F0E2E2"/>
<path d="M57.504 73.392C57.504 76.112 56.8 78.608 55.392 80.88C53.984 83.152 51.936 85.008 49.248 86.448C46.56 87.888 43.36 88.736 39.648 88.992L37.584 100.56C36.784 105.008 34.608 107.232 31.056 107.232C29.104 107.232 27.296 106.656 25.632 105.504C24 104.352 22.688 102.592 21.696 100.224C20.704 97.856 20.208 94.944 20.208 91.488C20.208 84.992 21.248 79.488 23.328 74.976C25.44 70.432 28.256 67.04 31.776 64.8C35.328 62.528 39.232 61.392 43.488 61.392C46.496 61.392 49.04 61.92 51.12 62.976C53.232 64.032 54.816 65.472 55.872 67.296C56.96 69.088 57.504 71.12 57.504 73.392ZM40.512 84.048C47.072 83.216 50.352 79.808 50.352 73.824C50.352 71.712 49.648 70 48.24 68.688C46.864 67.344 44.72 66.672 41.808 66.672C38.512 66.672 35.632 67.712 33.168 69.792C30.736 71.872 28.848 74.768 27.504 78.48C26.192 82.16 25.536 86.368 25.536 91.104C25.536 93.088 25.728 94.848 26.112 96.384C26.528 97.92 27.04 99.12 27.648 99.984C28.288 100.816 28.896 101.232 29.472 101.232C30.272 101.232 30.88 100.128 31.296 97.92L32.88 88.848C31.632 88.656 31.088 88.576 31.248 88.608C30.288 88.448 29.664 88.16 29.376 87.744C29.088 87.296 28.944 86.736 28.944 86.064C28.944 85.36 29.136 84.8 29.52 84.384C29.936 83.968 30.496 83.76 31.2 83.76C31.52 83.76 31.76 83.776 31.92 83.808C32.688 83.936 33.28 84.016 33.696 84.048C34.112 81.552 34.704 78.208 35.472 74.016C35.664 72.928 36.096 72.16 36.768 71.712C37.472 71.232 38.288 70.992 39.216 70.992C40.272 70.992 41.024 71.2 41.472 71.616C41.952 72 42.192 72.624 42.192 73.488C42.192 74 42.16 74.416 42.096 74.736L40.512 84.048ZM60.7549 102.24C58.7709 102.24 57.1869 101.52 56.0029 100.08C54.8189 98.64 54.2269 96.752 54.2269 94.416C54.2269 91.856 54.8189 89.44 56.0029 87.168C57.1869 84.864 58.7549 83.024 60.7069 81.648C62.6909 80.24 64.7869 79.536 66.9949 79.536C67.6989 79.536 68.1629 79.68 68.3869 79.968C68.6429 80.224 68.8509 80.704 69.0109 81.408C69.6829 81.28 70.3869 81.216 71.1229 81.216C72.6909 81.216 73.4749 81.776 73.4749 82.896C73.4749 83.568 73.2349 85.168 72.7549 87.696C72.0189 91.376 71.6509 93.936 71.6509 95.376C71.6509 95.856 71.7629 96.24 71.9869 96.528C72.2429 96.816 72.5629 96.96 72.9469 96.96C73.5549 96.96 74.2909 96.576 75.1549 95.808C76.0189 95.008 77.1869 93.728 78.6589 91.968C79.0429 91.52 79.4749 91.296 79.9549 91.296C80.3709 91.296 80.6909 91.488 80.9149 91.872C81.1709 92.256 81.2989 92.784 81.2989 93.456C81.2989 94.736 80.9949 95.728 80.3869 96.432C79.0749 98.064 77.6829 99.44 76.2109 100.56C74.7389 101.68 73.3149 102.24 71.9389 102.24C70.8829 102.24 69.9069 101.888 69.0109 101.184C68.1469 100.448 67.4909 99.456 67.0429 98.208C65.3789 100.896 63.2829 102.24 60.7549 102.24ZM62.4829 97.392C63.1869 97.392 63.8589 96.976 64.4989 96.144C65.1389 95.312 65.6029 94.208 65.8909 92.832L67.6669 84C66.3229 84.032 65.0749 84.544 63.9229 85.536C62.8029 86.496 61.9069 87.776 61.2349 89.376C60.5629 90.976 60.2269 92.672 60.2269 94.464C60.2269 95.456 60.4189 96.192 60.8029 96.672C61.2189 97.152 61.7789 97.392 62.4829 97.392ZM80.8058 102.24C79.5898 102.24 78.7258 101.6 78.2138 100.32C77.7338 99.04 77.4938 96.992 77.4938 94.176C77.4938 90.016 78.0858 86.064 79.2698 82.32C79.5578 81.392 80.0218 80.72 80.6618 80.304C81.3338 79.856 82.2618 79.632 83.4458 79.632C84.0858 79.632 84.5338 79.712 84.7898 79.872C85.0458 80.032 85.1738 80.336 85.1738 80.784C85.1738 81.296 84.9338 82.448 84.4538 84.24C84.1338 85.52 83.8778 86.64 83.6858 87.6C83.4938 88.56 83.3338 89.744 83.2058 91.152C84.2618 88.4 85.4458 86.16 86.7578 84.432C88.0698 82.704 89.3498 81.472 90.5978 80.736C91.8778 80 93.0458 79.632 94.1018 79.632C96.1818 79.632 97.2218 80.672 97.2218 82.752C97.2218 83.168 97.0778 84.176 96.7898 85.776C96.5338 87.056 96.4058 87.856 96.4058 88.176C96.4058 89.296 96.8058 89.856 97.6058 89.856C98.5018 89.856 99.6538 89.152 101.062 87.744C101.478 87.328 101.91 87.12 102.358 87.12C102.774 87.12 103.094 87.312 103.318 87.696C103.574 88.048 103.702 88.528 103.702 89.136C103.702 90.32 103.382 91.248 102.742 91.92C101.846 92.848 100.79 93.648 99.5738 94.32C98.3898 94.96 97.1258 95.28 95.7818 95.28C94.0858 95.28 92.7898 94.848 91.8938 93.984C91.0298 93.12 90.5978 91.952 90.5978 90.48C90.5978 90 90.6458 89.52 90.7418 89.04C90.8058 88.4 90.8378 87.968 90.8378 87.744C90.8378 87.232 90.6618 86.976 90.3098 86.976C89.8298 86.976 89.1898 87.52 88.3898 88.608C87.6218 89.664 86.8538 91.072 86.0858 92.832C85.3178 94.592 84.6938 96.448 84.2138 98.4C83.8618 99.904 83.4458 100.928 82.9658 101.472C82.5178 101.984 81.7978 102.24 80.8058 102.24ZM105.146 102.24C103.162 102.24 101.578 101.52 100.394 100.08C99.2095 98.64 98.6175 96.752 98.6175 94.416C98.6175 91.856 99.2095 89.44 100.394 87.168C101.578 84.864 103.146 83.024 105.098 81.648C107.082 80.24 109.178 79.536 111.386 79.536C112.09 79.536 112.554 79.68 112.778 79.968C113.034 80.224 113.242 80.704 113.402 81.408C114.074 81.28 114.778 81.216 115.514 81.216C117.082 81.216 117.866 81.776 117.866 82.896C117.866 83.568 117.626 85.168 117.146 87.696C116.41 91.376 116.042 93.936 116.042 95.376C116.042 95.856 116.154 96.24 116.378 96.528C116.634 96.816 116.954 96.96 117.338 96.96C117.946 96.96 118.682 96.576 119.546 95.808C120.41 95.008 121.578 93.728 123.05 91.968C123.434 91.52 123.866 91.296 124.346 91.296C124.762 91.296 125.082 91.488 125.306 91.872C125.562 92.256 125.69 92.784 125.69 93.456C125.69 94.736 125.386 95.728 124.778 96.432C123.466 98.064 122.074 99.44 120.602 100.56C119.13 101.68 117.706 102.24 116.33 102.24C115.274 102.24 114.298 101.888 113.402 101.184C112.538 100.448 111.882 99.456 111.434 98.208C109.77 100.896 107.674 102.24 105.146 102.24ZM106.874 97.392C107.578 97.392 108.25 96.976 108.89 96.144C109.53 95.312 109.994 94.208 110.282 92.832L112.058 84C110.714 84.032 109.466 84.544 108.314 85.536C107.194 86.496 106.298 87.776 105.626 89.376C104.954 90.976 104.618 92.672 104.618 94.464C104.618 95.456 104.81 96.192 105.194 96.672C105.61 97.152 106.17 97.392 106.874 97.392ZM149.052 91.296C149.468 91.296 149.788 91.488 150.012 91.872C150.268 92.256 150.396 92.784 150.396 93.456C150.396 94.736 150.092 95.728 149.484 96.432C148.172 98.032 146.732 99.408 145.164 100.56C143.596 101.68 142.044 102.24 140.508 102.24C138.076 102.24 136.22 100.816 134.94 97.968C133.596 99.664 132.412 100.8 131.388 101.376C130.396 101.952 129.228 102.24 127.884 102.24C125.932 102.24 124.316 101.52 123.036 100.08C121.788 98.608 121.164 96.704 121.164 94.368C121.164 91.808 121.708 89.44 122.796 87.264C123.884 85.056 125.372 83.264 127.26 81.888C129.18 80.48 131.324 79.648 133.692 79.392C134.3 73.184 135.452 67.888 137.148 63.504C138.876 59.088 141.132 56.88 143.916 56.88C145.292 56.88 146.428 57.504 147.324 58.752C148.252 60 148.716 61.888 148.716 64.416C148.716 68 147.836 72.192 146.076 76.992C144.316 81.792 141.964 86.72 139.02 91.776C139.148 93.632 139.42 94.96 139.836 95.76C140.284 96.56 140.844 96.96 141.516 96.96C142.38 96.96 143.26 96.576 144.156 95.808C145.052 95.04 146.252 93.76 147.756 91.968C148.14 91.52 148.572 91.296 149.052 91.296ZM143.388 61.584C142.78 61.584 142.172 62.672 141.564 64.848C140.956 66.992 140.428 69.808 139.98 73.296C139.564 76.784 139.26 80.432 139.068 84.24C142.652 76.432 144.444 70.16 144.444 65.424C144.444 64.208 144.332 63.264 144.108 62.592C143.916 61.92 143.676 61.584 143.388 61.584ZM129.564 97.392C130.172 97.392 130.78 97.152 131.388 96.672C131.996 96.16 132.764 95.232 133.692 93.888C133.372 92.16 133.212 90.224 133.212 88.08C133.212 87.312 133.244 86.064 133.308 84.336C131.548 84.88 130.076 86.064 128.892 87.888C127.74 89.68 127.164 91.68 127.164 93.888C127.164 96.224 127.964 97.392 129.564 97.392ZM152.78 76.464C151.436 76.464 150.428 76.16 149.756 75.552C149.084 74.912 148.748 74.032 148.748 72.912C148.748 71.792 149.18 70.864 150.044 70.128C150.94 69.36 152.044 68.976 153.356 68.976C154.54 68.976 155.5 69.264 156.236 69.84C156.972 70.416 157.34 71.232 157.34 72.288C157.34 73.568 156.924 74.592 156.092 75.36C155.26 76.096 154.156 76.464 152.78 76.464ZM152.396 102.24C150.316 102.24 148.796 101.504 147.836 100.032C146.908 98.56 146.444 96.608 146.444 94.176C146.444 92.736 146.62 90.896 146.972 88.656C147.356 86.384 147.836 84.272 148.412 82.32C148.7 81.296 149.084 80.592 149.564 80.208C150.044 79.824 150.812 79.632 151.868 79.632C153.5 79.632 154.316 80.176 154.316 81.264C154.316 82.064 154.012 83.92 153.404 86.832C152.636 90.352 152.252 92.736 152.252 93.984C152.252 94.944 152.38 95.68 152.636 96.192C152.892 96.704 153.324 96.96 153.932 96.96C154.508 96.96 155.228 96.56 156.092 95.76C156.956 94.96 158.108 93.696 159.548 91.968C159.932 91.52 160.364 91.296 160.844 91.296C161.26 91.296 161.58 91.488 161.804 91.872C162.06 92.256 162.188 92.784 162.188 93.456C162.188 94.736 161.884 95.728 161.276 96.432C158.108 100.304 155.148 102.24 152.396 102.24ZM167.232 103.296C165.568 103.296 164.288 102.912 163.392 102.144C162.528 101.376 162.096 100.512 162.096 99.552C162.096 98.72 162.4 98 163.008 97.392C163.616 96.784 164.512 96.48 165.696 96.48C166.112 96.48 166.592 96.528 167.136 96.624C167.712 96.688 168.144 96.736 168.432 96.768C168.4 95.936 168.208 95.152 167.856 94.416C167.536 93.68 167.12 92.976 166.608 92.304C166.096 91.6 165.616 90.992 165.168 90.48C164.176 92.368 163.184 93.936 162.192 95.184C161.232 96.432 160.176 97.616 159.024 98.736C158.448 99.312 157.84 99.6 157.2 99.6C156.688 99.6 156.272 99.424 155.952 99.072C155.632 98.688 155.472 98.224 155.472 97.68C155.472 97.04 155.696 96.448 156.144 95.904L156.768 95.136C158.528 92.96 159.856 91.168 160.752 89.76C161.296 88.832 161.936 87.6 162.672 86.064C163.408 84.496 164.128 82.88 164.832 81.216C165.44 79.808 166.704 79.104 168.624 79.104C169.52 79.104 170.144 79.184 170.496 79.344C170.848 79.504 171.024 79.76 171.024 80.112C171.024 80.304 170.96 80.608 170.832 81.024C170.704 81.44 170.528 81.856 170.304 82.272C169.728 83.424 169.44 84.4 169.44 85.2C169.44 85.68 169.6 86.208 169.92 86.784C170.272 87.36 170.8 88.08 171.504 88.944C172.528 90.288 173.296 91.44 173.808 92.4C174.352 93.328 174.624 94.352 174.624 95.472C174.624 95.792 174.592 96.24 174.528 96.816C176.096 96.208 177.936 94.592 180.048 91.968C180.432 91.52 180.864 91.296 181.344 91.296C181.76 91.296 182.08 91.488 182.304 91.872C182.56 92.256 182.688 92.784 182.688 93.456C182.688 94.672 182.384 95.664 181.776 96.432C180.176 98.416 178.64 99.776 177.168 100.512C175.728 101.216 173.936 101.6 171.792 101.664C170.512 102.752 168.992 103.296 167.232 103.296ZM195.972 92.736C196.388 92.736 196.708 92.928 196.932 93.312C197.188 93.696 197.316 94.224 197.316 94.896C197.316 96.048 197.044 97.04 196.5 97.872C195.604 99.248 194.42 100.32 192.948 101.088C191.508 101.856 189.78 102.24 187.764 102.24C184.692 102.24 182.308 101.328 180.612 99.504C178.916 97.648 178.068 95.152 178.068 92.016C178.068 89.808 178.532 87.76 179.46 85.872C180.388 83.952 181.668 82.432 183.3 81.312C184.964 80.192 186.836 79.632 188.916 79.632C190.772 79.632 192.26 80.192 193.38 81.312C194.5 82.4 195.06 83.888 195.06 85.776C195.06 87.984 194.26 89.888 192.66 91.488C191.092 93.056 188.404 94.304 184.596 95.232C185.364 96.704 186.66 97.44 188.484 97.44C189.796 97.44 190.868 97.136 191.7 96.528C192.564 95.92 193.556 94.896 194.676 93.456C195.06 92.976 195.492 92.736 195.972 92.736ZM188.1 84.336C186.916 84.336 185.908 85.024 185.076 86.4C184.276 87.776 183.876 89.44 183.876 91.392V91.488C185.764 91.04 187.252 90.368 188.34 89.472C189.428 88.576 189.972 87.536 189.972 86.352C189.972 85.744 189.796 85.264 189.444 84.912C189.124 84.528 188.676 84.336 188.1 84.336Z" fill="#F0E2E2"/>
</svg>
